<svg xmlns="http://www.w3.org/2000/svg" class="diagram-root" style="background: #f5f6f6" xmlns:xlink="http://www.w3.org/1999/xlink"><style>.diagram-root { font-family: "Helvetica Neue", sans-serif; font-size: 12px; } .t { overflow: visible; } .t-bg { y: 40; fill: #fff;   } .th { fill: #005aa0;   } .tht { fill: #fff; font-size: 14px;  } .tf { fill: #323c46; overflow: visible; } .tf.pk { fill: #005aa0; font-weight: bold; } .tf.fk { font-weight: bold; } .ty { fill: #adb1b5; font-weight: normal; text-anchor: end; } .r { fill: transparent; stroke: #c3c3c3; stroke-width: 1; } .l { stroke: 1; } .i { fill: #c2c7ce; stroke: #c2c7ce; } .i.ix { fill: #afb3b6; stroke: #000; } .fa { fill: transparent; overflow: visible; } .fa .bg.hover { fill: #f7f7f7; } .c { cy: 12; r: 4; stroke: #d2d2dc; fill: #d2d2dc; } .hr { fill: transparent; stroke: #323c46; stroke-opacity: 0.035; stroke-width: 13; } .dc { stroke: #fa5a3c; fill: #fa5a3c; } .x { stroke: white; stroke-width: 1; } .hl .th { fill: #1b9bff; } .hl .tht {  } .fhl .bg { fill: #e7f4ff; } .fhls .bg {  } .r.hl { stroke: #1b9bff; } .dim { opacity: 0.25; }</style><g class="drawing-wrapper" transform="translate(-53.36 94.2857) scale(1)"><g class="rs"><path class="r" id="h576393538" d="M 248.57 242 m -1 0 a 1 1 0 1 0 2 0 a 1 1 0 1 0 -2 0 M 248.57 242 m -0.5 0 a 0.5 0.5 0 1 0 1 0 a 0.5 0.5 0 1 0 -1 0 M 248.57 242 L 248.57 242 L 236.57 242 M 248.57 248 m -1 0 a 1 1 0 1 0 2 0 a 1 1 0 1 0 -2 0 M 248.57 248 m -0.5 0 a 0.5 0.5 0 1 0 1 0 a 0.5 0.5 0 1 0 -1 0 M 248.57 248 L 248.57 248 L 241.57 242 L 248.57 236 M 248.57 236 m -1 0 a 1 1 0 1 0 2 0 a 1 1 0 1 0 -2 0 M 248.57 236 m -0.5 0 a 0.5 0.5 0 1 0 1 0 a 0.5 0.5 0 1 0 -1 0 M 236.57 242 C -86.278 242 16.04 482.89 66.04 482.89 M 78.04 482.89 m -1 0 a 1 1 0 1 0 2 0 a 1 1 0 1 0 -2 0 M 78.04 482.89 m -0.5 0 a 0.5 0.5 0 1 0 1 0 a 0.5 0.5 0 1 0 -1 0 M 78.04 482.89 L 78.04 482.89 L 66.04 482.89 M 72.04 488.89 L 72.04 488.89 L 72.04 476.89" /><path class="r" id="h3286653075" d="M 559.29 17.71 m -1 0 a 1 1 0 1 0 2 0 a 1 1 0 1 0 -2 0 M 559.29 17.71 m -0.5 0 a 0.5 0.5 0 1 0 1 0 a 0.5 0.5 0 1 0 -1 0 M 559.29 17.71 L 559.29 17.71 L 547.29 17.71 M 559.29 23.71 m -1 0 a 1 1 0 1 0 2 0 a 1 1 0 1 0 -2 0 M 559.29 23.71 m -0.5 0 a 0.5 0.5 0 1 0 1 0 a 0.5 0.5 0 1 0 -1 0 M 559.29 23.71 L 559.29 23.71 L 552.29 17.71 L 559.29 11.71 M 559.29 11.71 m -1 0 a 1 1 0 1 0 2 0 a 1 1 0 1 0 -2 0 M 559.29 11.71 m -0.5 0 a 0.5 0.5 0 1 0 1 0 a 0.5 0.5 0 1 0 -1 0 M 547.29 17.71 Q 522.79 17.71 498.28 117.35 T 449.27 217 M 437.27 217 m -1 0 a 1 1 0 1 0 2 0 a 1 1 0 1 0 -2 0 M 437.27 217 m -0.5 0 a 0.5 0.5 0 1 0 1 0 a 0.5 0.5 0 1 0 -1 0 M 437.27 217 L 437.27 217 L 449.27 217 M 443.27 223 L 443.27 223 L 443.27 211" /><path class="r" id="h4223752257" d="M 728.66 42.71 m -1 0 a 1 1 0 1 0 2 0 a 1 1 0 1 0 -2 0 M 728.66 42.71 m -0.5 0 a 0.5 0.5 0 1 0 1 0 a 0.5 0.5 0 1 0 -1 0 M 728.66 42.71 L 728.66 42.71 L 740.66 42.71 M 728.66 48.71 m -1 0 a 1 1 0 1 0 2 0 a 1 1 0 1 0 -2 0 M 728.66 48.71 m -0.5 0 a 0.5 0.5 0 1 0 1 0 a 0.5 0.5 0 1 0 -1 0 M 728.66 48.71 L 728.66 48.71 L 735.66 42.71 L 728.66 36.71 M 728.66 36.71 m -1 0 a 1 1 0 1 0 2 0 a 1 1 0 1 0 -2 0 M 728.66 36.71 m -0.5 0 a 0.5 0.5 0 1 0 1 0 a 0.5 0.5 0 1 0 -1 0 M 740.66 42.71 C 805.508 42.71 799.94 192.71 749.94 192.71 M 737.94 192.71 m -1 0 a 1 1 0 1 0 2 0 a 1 1 0 1 0 -2 0 M 737.94 192.71 m -0.5 0 a 0.5 0.5 0 1 0 1 0 a 0.5 0.5 0 1 0 -1 0 M 737.94 192.71 L 737.94 192.71 L 749.94 192.71 M 743.94 198.71 L 743.94 198.71 L 743.94 186.71" /><path class="r" id="h4024103493" d="M 733.66 426.29 m -1 0 a 1 1 0 1 0 2 0 a 1 1 0 1 0 -2 0 M 733.66 426.29 m -0.5 0 a 0.5 0.5 0 1 0 1 0 a 0.5 0.5 0 1 0 -1 0 M 733.66 426.29 L 733.66 426.29 L 745.66 426.29 M 733.66 432.29 m -1 0 a 1 1 0 1 0 2 0 a 1 1 0 1 0 -2 0 M 733.66 432.29 m -0.5 0 a 0.5 0.5 0 1 0 1 0 a 0.5 0.5 0 1 0 -1 0 M 733.66 432.29 L 733.66 432.29 L 740.66 426.29 L 733.66 420.29 M 733.66 420.29 m -1 0 a 1 1 0 1 0 2 0 a 1 1 0 1 0 -2 0 M 733.66 420.29 m -0.5 0 a 0.5 0.5 0 1 0 1 0 a 0.5 0.5 0 1 0 -1 0 M 745.66 426.29 C 802.508 426.29 799.94 192.71 749.94 192.71 M 737.94 192.71 m -1 0 a 1 1 0 1 0 2 0 a 1 1 0 1 0 -2 0 M 737.94 192.71 m -0.5 0 a 0.5 0.5 0 1 0 1 0 a 0.5 0.5 0 1 0 -1 0 M 737.94 192.71 L 737.94 192.71 L 749.94 192.71 M 743.94 198.71 L 743.94 198.71 L 743.94 186.71" /><path class="r" id="h3728003642" d="M 564.29 451.29 m -1 0 a 1 1 0 1 0 2 0 a 1 1 0 1 0 -2 0 M 564.29 451.29 m -0.5 0 a 0.5 0.5 0 1 0 1 0 a 0.5 0.5 0 1 0 -1 0 M 564.29 451.29 L 564.29 451.29 L 552.29 451.29 M 564.29 457.29 m -1 0 a 1 1 0 1 0 2 0 a 1 1 0 1 0 -2 0 M 564.29 457.29 m -0.5 0 a 0.5 0.5 0 1 0 1 0 a 0.5 0.5 0 1 0 -1 0 M 564.29 457.29 L 564.29 457.29 L 557.29 451.29 L 564.29 445.29 M 564.29 445.29 m -1 0 a 1 1 0 1 0 2 0 a 1 1 0 1 0 -2 0 M 564.29 445.29 m -0.5 0 a 0.5 0.5 0 1 0 1 0 a 0.5 0.5 0 1 0 -1 0 M 552.29 451.29 Q 526.54 451.29 500.78 334.15 T 449.27 217 M 437.27 217 m -1 0 a 1 1 0 1 0 2 0 a 1 1 0 1 0 -2 0 M 437.27 217 m -0.5 0 a 0.5 0.5 0 1 0 1 0 a 0.5 0.5 0 1 0 -1 0 M 437.27 217 L 437.27 217 L 449.27 217 M 443.27 223 L 443.27 223 L 443.27 211" /><path class="r" id="h1950279624" d="M 75.36 101.64 m -1 0 a 1 1 0 1 0 2 0 a 1 1 0 1 0 -2 0 M 75.36 101.64 m -0.5 0 a 0.5 0.5 0 1 0 1 0 a 0.5 0.5 0 1 0 -1 0 M 75.36 101.64 L 75.36 101.64 L 63.36 101.64 M 75.36 107.64 m -1 0 a 1 1 0 1 0 2 0 a 1 1 0 1 0 -2 0 M 75.36 107.64 m -0.5 0 a 0.5 0.5 0 1 0 1 0 a 0.5 0.5 0 1 0 -1 0 M 75.36 107.64 L 75.36 107.64 L 68.36 101.64 L 75.36 95.64 M 75.36 95.64 m -1 0 a 1 1 0 1 0 2 0 a 1 1 0 1 0 -2 0 M 75.36 95.64 m -0.5 0 a 0.5 0.5 0 1 0 1 0 a 0.5 0.5 0 1 0 -1 0 M 63.36 101.64 C 13.36 101.64 -90.566 217 236.57 217 M 248.57 217 m -1 0 a 1 1 0 1 0 2 0 a 1 1 0 1 0 -2 0 M 248.57 217 m -0.5 0 a 0.5 0.5 0 1 0 1 0 a 0.5 0.5 0 1 0 -1 0 M 248.57 217 L 248.57 217 L 236.57 217 M 242.57 223 L 242.57 223 L 242.57 211" /></g><g class="hrs" /><g class="ts"><svg class="t" id="h2075019312" x="248.57" y="160" width="188.7" height="225"><rect class="th" width="188.7" height="40" /><text class="tht" x="13" y="25">employee</text><rect class="t-bg" y="40" width="188.7" height="185" /><text class="tf pk" x="13" y="61">emp_no<tspan class="ty" x="175.7">int</tspan></text><path class="i pk" transform="translate(143.03 48) scale(0.65)" d="M 7 14 A 2 2 0 0 1 5 12 A 2 2 0 0 1 7 10 A 2 2 0 0 1 9 12 A 2 2 0 0 1 7 14 M 12.65 10 C 11.83 7.67 9.61 6 7 6 A 6 6 0 0 0 1 12 A 6 6 0 0 0 7 18 C 9.61 18 11.83 16.33 12.65 14 H 17 V 18 H 21 V 14 H 23 V 10 H 12.65 Z" /><text class="tf fk" x="13" y="86">title_id<tspan class="ty" x="175.7">VARCHAR(10)</tspan></text><text class="tf" x="13" y="111">birth_date<tspan class="ty" x="175.7">DATE</tspan></text><text class="tf" x="13" y="136">first_name<tspan class="ty" x="175.7">VARCHAR(128)</tspan></text><text class="tf" x="13" y="161">last_name<tspan class="ty" x="175.7">VARCHAR(128)</tspan></text><text class="tf" x="13" y="186">sex<tspan class="ty" x="175.7">CHAR(1)?</tspan></text><text class="tf" x="13" y="211">hire_date<tspan class="ty" x="175.7">DATE</tspan></text></svg><svg class="t" id="h4180888202" x="548.57" y="135.71" width="189.37" height="100"><rect class="th" width="189.37" height="40" /><text class="tht" x="13" y="25">department</text><rect class="t-bg" y="40" width="189.37" height="60" /><text class="tf pk" x="13" y="61">dept_no<tspan class="ty" x="176.37">VARCHAR(10)</tspan></text><path class="i pk" transform="translate(76.35 48) scale(0.65)" d="M 7 14 A 2 2 0 0 1 5 12 A 2 2 0 0 1 7 10 A 2 2 0 0 1 9 12 A 2 2 0 0 1 7 14 M 12.65 10 C 11.83 7.67 9.61 6 7 6 A 6 6 0 0 0 1 12 A 6 6 0 0 0 7 18 C 9.61 18 11.83 16.33 12.65 14 H 17 V 18 H 21 V 14 H 23 V 10 H 12.65 Z" /><text class="tf" x="13" y="86">dept_name<tspan class="ty" x="176.37">VARCHAR(64)</tspan></text></svg><svg class="t" id="h1090417462" x="559.29" y="-64.29" width="169.37" height="125"><rect class="th" width="169.37" height="40" /><text class="tht" x="13" y="25">dept_emp</text><rect class="t-bg" y="40" width="169.37" height="85" /><text class="tf pk" x="13" y="61">id<tspan class="ty" x="156.37">int</tspan></text><path class="i pk" transform="translate(123.7 48) scale(0.65)" d="M 7 14 A 2 2 0 0 1 5 12 A 2 2 0 0 1 7 10 A 2 2 0 0 1 9 12 A 2 2 0 0 1 7 14 M 12.65 10 C 11.83 7.67 9.61 6 7 6 A 6 6 0 0 0 1 12 A 6 6 0 0 0 7 18 C 9.61 18 11.83 16.33 12.65 14 H 17 V 18 H 21 V 14 H 23 V 10 H 12.65 Z" /><text class="tf fk" x="13" y="86">emp_no<tspan class="ty" x="156.37">int</tspan></text><text class="tf fk" x="13" y="111">dept_no<tspan class="ty" x="156.37">VARCHAR(10)</tspan></text></svg><svg class="t" id="h1676682957" x="564.29" y="344.29" width="169.37" height="125"><rect class="th" width="169.37" height="40" /><text class="tht" x="13" y="25">dept_manager</text><rect class="t-bg" y="40" width="169.37" height="85" /><text class="tf pk" x="13" y="61">id<tspan class="ty" x="156.37">int</tspan></text><path class="i pk" transform="translate(123.7 48) scale(0.65)" d="M 7 14 A 2 2 0 0 1 5 12 A 2 2 0 0 1 7 10 A 2 2 0 0 1 9 12 A 2 2 0 0 1 7 14 M 12.65 10 C 11.83 7.67 9.61 6 7 6 A 6 6 0 0 0 1 12 A 6 6 0 0 0 7 18 C 9.61 18 11.83 16.33 12.65 14 H 17 V 18 H 21 V 14 H 23 V 10 H 12.65 Z" /><text class="tf fk" x="13" y="86">dept_no<tspan class="ty" x="156.37">VARCHAR(10)</tspan></text><text class="tf fk" x="13" y="111">emp_no<tspan class="ty" x="156.37">int</tspan></text></svg><svg class="t" id="h2472833127" x="75.36" y="19.64" width="165.36" height="125"><rect class="th" width="165.36" height="40" /><text class="tht" x="13" y="25">salaries</text><rect class="t-bg" y="40" width="165.36" height="85" /><text class="tf pk" x="13" y="61">id<tspan class="ty" x="152.36">int</tspan></text><path class="i pk" transform="translate(119.69 48) scale(0.65)" d="M 7 14 A 2 2 0 0 1 5 12 A 2 2 0 0 1 7 10 A 2 2 0 0 1 9 12 A 2 2 0 0 1 7 14 M 12.65 10 C 11.83 7.67 9.61 6 7 6 A 6 6 0 0 0 1 12 A 6 6 0 0 0 7 18 C 9.61 18 11.83 16.33 12.65 14 H 17 V 18 H 21 V 14 H 23 V 10 H 12.65 Z" /><text class="tf fk" x="13" y="86">emp_no<tspan class="ty" x="152.36">int</tspan></text><text class="tf" x="13" y="111">salary<tspan class="ty" x="152.36">NUMERIC(18,2)</tspan></text></svg><svg class="t" id="h311790747" x="78.04" y="425.89" width="180.7" height="100"><rect class="th" width="180.7" height="40" /><text class="tht" x="13" y="25">titles</text><rect class="t-bg" y="40" width="180.7" height="60" /><text class="tf pk" x="13" y="61">title_id<tspan class="ty" x="167.7">VARCHAR(10)</tspan></text><path class="i pk" transform="translate(67.68 48) scale(0.65)" d="M 7 14 A 2 2 0 0 1 5 12 A 2 2 0 0 1 7 10 A 2 2 0 0 1 9 12 A 2 2 0 0 1 7 14 M 12.65 10 C 11.83 7.67 9.61 6 7 6 A 6 6 0 0 0 1 12 A 6 6 0 0 0 7 18 C 9.61 18 11.83 16.33 12.65 14 H 17 V 18 H 21 V 14 H 23 V 10 H 12.65 Z" /><text class="tf" x="13" y="86">title<tspan class="ty" x="167.7">VARCHAR(64)</tspan></text></svg></g></g><text class="qdbd-link" y="20" x="10">www.quickdatabasediagrams.com</text></svg>